<?xml version="1.0" encoding="UTF-8"?>
<svg id="Layer_1" data-name="Layer 1" xmlns="http://www.w3.org/2000/svg" width="144" height="144" viewBox="0 0 144 144">
  <defs>
    <style>
      .cls-1 {
        fill: #fff;
      }

      .cls-2 {
        fill: #212733;
      }

      .cls-3 {
        fill: #00f2a7;
      }
    </style>
  </defs>
  <rect class="cls-2" width="144" height="144"/>
  <polygon class="cls-3" points="114.15 58.35 114.15 84.61 96.34 77.31 96.34 65.65 114.15 58.35"/>
  <path class="cls-3" d="M81.23,87.03c-8.15.83-16.11.83-24.27,0-3.46-.39-6.78-3.65-7.07-7.04-.43-5.32-.43-10.67,0-15.98.29-3.39,3.61-6.65,7.07-7.04,8.15-.83,16.11-.83,24.27,0,3.46.39,6.78,3.65,7.07,7.04.43,5.32.43,10.67,0,15.98-.29,3.39-3.61,6.65-7.07,7.04Z"/>
  <path class="cls-1" d="M86.46,101.44c-5.11,2.93-10.93,4.48-16.85,4.48-4.58,0-9.02-.9-13.2-2.67-4.04-1.71-7.67-4.15-10.78-7.27-3.11-3.11-5.56-6.74-7.27-10.78-1.77-4.18-2.67-8.62-2.67-13.2s.9-9.02,2.67-13.2c1.71-4.04,4.15-7.67,7.27-10.78,3.11-3.11,6.74-5.56,10.78-7.27,4.18-1.77,8.62-2.67,13.2-2.67,5.92,0,11.75,1.55,16.85,4.48,4.58,2.63,8.51,6.31,11.43,10.71l5.49-2.25c-7.24-11.62-20.02-18.77-33.77-18.77-21.92,0-39.76,17.83-39.76,39.76s17.83,39.76,39.76,39.76c13.75,0,26.54-7.15,33.77-18.77l-5.49-2.25c-2.92,4.39-6.85,8.08-11.43,10.71Z"/>
</svg>
