<?xml version="1.0" encoding="UTF-8"?>
<svg id="Layer_2" data-name="Layer 2" xmlns="http://www.w3.org/2000/svg" width="1846.49" height="443.61" viewBox="0 0 1846.49 443.61">
  <defs>
    <style>
      .cls-1 {
        fill: #1e1e1e;
      }

      .cls-2 {
        fill: #00f2a7;
      }
    </style>
  </defs>
  <g id="Layer_1-2" data-name="Layer 1">
    <g>
      <g>
        <path class="cls-1" d="M630.09,129.82c0-36.57,29.07-67.14,65.64-67.14,19.88,0,37.13,8.44,48.57,21.94l-12.38,10.5c-8.63-10.13-21.76-16.69-36.2-16.69-27.19,0-48.57,23.63-48.57,51.39s21.38,50.83,48.57,50.83c14.44,0,27.57-6.56,36.2-16.69l12.38,10.5c-11.44,13.5-28.69,21.94-48.57,21.94-36.57,0-65.64-30.01-65.64-66.58Z"/>
        <path class="cls-1" d="M776.19,129.82c0-36.76,28.51-67.14,65.27-67.14s65.64,30.38,65.64,67.14-28.69,66.58-65.64,66.58-65.27-30.01-65.27-66.58ZM890.03,129.82c0-27.76-21.01-51.39-48.57-51.39s-48.2,23.63-48.2,51.39,21,50.83,48.2,50.83,48.57-23.26,48.57-50.83Z"/>
        <path class="cls-1" d="M970.11,178.39h52.89v15.75h-69.95V64.93h17.07v113.46Z"/>
        <path class="cls-1" d="M1080.57,178.39h61.14v15.75h-78.02V64.93h76.14v15.75h-59.26v42.01h51.76v15.94h-51.76v39.76Z"/>
        <path class="cls-1" d="M1175.84,129.82c0-36.76,28.69-67.14,65.45-67.14,17.07,0,32.26,6.56,43.51,16.88l-11.81,11.07c-8.25-7.31-19.5-12.19-31.7-12.19-27.19,0-48.39,23.63-48.39,51.39s21.19,50.83,48.39,50.83c23.25,0,42.38-15.75,42.38-36.38h-37.51v-14.82h56.26c0,45.2-24.38,66.95-61.14,66.95s-65.45-30.01-65.45-66.58Z"/>
        <path class="cls-1" d="M1413.27,194.15l-33.95-48.76h-16.69v48.76h-17.07V64.93h48.57c28.13,0,39.01,20.25,39.01,40.32,0,18.75-10.69,38.63-33.76,40.32l34.32,48.57h-20.44ZM1362.63,80.68v49.14h27.01c18.94,0,26.44-9.94,26.44-24.57s-8.44-24.57-21.57-24.57h-31.88Z"/>
        <path class="cls-1" d="M1471.21,129.82c0-36.76,28.51-67.14,65.27-67.14s65.64,30.38,65.64,67.14-28.69,66.58-65.64,66.58-65.27-30.01-65.27-66.58ZM1585.06,129.82c0-27.76-21.01-51.39-48.57-51.39s-48.2,23.63-48.2,51.39,21,50.83,48.2,50.83,48.57-23.26,48.57-50.83Z"/>
        <path class="cls-1" d="M1709.21,64.93h17.44l-38.82,129.22h-16.32l-39.01-129.22h17.44l29.63,100.71,29.63-100.71Z"/>
        <path class="cls-1" d="M1785.35,178.39h61.14v15.75h-78.02V64.93h76.14v15.75h-59.26v42.01h51.76v15.94h-51.76v39.76Z"/>
      </g>
      <g>
        <path class="cls-1" d="M740.49,373.23h-5.97l-10.21-81.06-35.42,72.04h-5.97l-35.69-72.3-10.21,81.32h-5.84l11.54-91.4h5.84l37.41,76.54,37.14-76.54h5.84l11.54,91.4Z"/>
        <path class="cls-1" d="M806.42,367.52h46.3v5.7h-52.27v-91.4h50.68v5.7h-44.71v37.94h39.13v5.84h-39.13v36.22Z"/>
        <path class="cls-1" d="M945.19,281.82c25.6,0,40.33,19.9,40.33,45.9s-14.73,45.5-40.33,45.5h-34.23v-91.4h34.23ZM945.19,367.52c22.15,0,34.36-17.25,34.36-39.8s-12.21-40.2-34.36-40.2h-28.26v79.99h28.26Z"/>
        <path class="cls-1" d="M1044.55,373.23v-91.4h5.97v91.4h-5.97Z"/>
        <path class="cls-1" d="M1173.1,373.23l-9.42-24.94h-44.57l-9.55,24.94h-6.37l35.02-91.4h6.37l34.76,91.4h-6.24ZM1121.09,342.98h40.46l-20.17-53.2-20.3,53.2Z"/>
      </g>
    </g>
    <polygon class="cls-2" points="470.3 145.63 470.3 292.19 370.93 251.46 370.93 186.36 470.3 145.63"/>
    <path class="cls-2" d="M286.62,305.68c-45.48,4.62-89.9,4.62-135.38,0-19.28-2.17-37.84-20.38-39.44-39.28-2.38-29.68-2.38-59.5,0-89.18,1.6-18.9,20.16-37.11,39.44-39.28,45.48-4.62,89.9-4.62,135.38,0,19.28,2.17,37.84,20.38,39.44,39.28,2.38,29.68,2.38,59.5,0,89.18-1.6,18.9-20.16,37.11-39.44,39.28Z"/>
    <path class="cls-1" d="M315.84,386.08c-28.49,16.34-61,24.97-94.03,24.97-25.54,0-50.33-5.01-73.66-14.87-22.54-9.53-42.77-23.17-60.15-40.55-17.38-17.38-31.02-37.61-40.55-60.15-9.87-23.34-14.88-48.12-14.88-73.67s5.01-50.33,14.88-73.66c9.53-22.54,23.17-42.77,40.55-60.15,17.38-17.38,37.62-31.02,60.15-40.56,23.34-9.87,48.12-14.87,73.66-14.87,33.03,0,65.54,8.63,94.03,24.97,25.55,14.66,47.47,35.22,63.75,59.74l30.65-12.56C369.86,39.89,298.52,0,221.81,0,99.51,0,0,99.5,0,221.81s99.51,221.81,221.81,221.81c76.72,0,148.05-39.89,188.42-104.72l-30.65-12.55c-16.28,24.52-38.2,45.08-63.75,59.73Z"/>
  </g>
</svg>