<svg xmlns="http://www.w3.org/2000/svg" viewBox="0 0 1846.49 443.61"><defs><style>.cls-1{fill:#00f2a7;}.cls-2{fill:#fff;}</style></defs><g id="Layer_2" data-name="Layer 2"><g id="Layer_1-2" data-name="Layer 1"><polygon class="cls-1" points="470.17 145.64 470.17 292.2 370.8 251.47 370.8 186.37 470.17 145.64"/><path class="cls-1" d="M286.49,305.7a662.91,662.91,0,0,1-135.38,0c-19.28-2.17-37.84-20.38-39.44-39.29a557.83,557.83,0,0,1,0-89.18c1.6-18.9,20.16-37.11,39.44-39.28a662.91,662.91,0,0,1,135.38,0c19.28,2.17,37.83,20.38,39.43,39.28a557.83,557.83,0,0,1,0,89.18C324.32,285.32,305.76,303.53,286.49,305.7Z"/><path class="cls-2" d="M630.09,129.82c0-36.57,29.07-67.14,65.64-67.14,19.88,0,37.14,8.44,48.58,21.94l-12.38,10.5a47.73,47.73,0,0,0-36.2-16.69c-27.19,0-48.57,23.63-48.57,51.39,0,27.57,21.38,50.83,48.57,50.83a47.71,47.71,0,0,0,36.2-16.7l12.38,10.51c-11.44,13.5-28.7,21.94-48.58,21.94C659.16,196.4,630.09,166.39,630.09,129.82Z"/><path class="cls-2" d="M776.19,129.82c0-36.76,28.5-67.14,65.26-67.14,36.95,0,65.65,30.38,65.65,67.14,0,36.57-28.7,66.58-65.65,66.58C804.69,196.4,776.19,166.39,776.19,129.82Zm113.84,0c0-27.76-21-51.39-48.58-51.39-27.19,0-48.19,23.63-48.19,51.39,0,27.57,21,50.83,48.19,50.83C869,180.65,890,157.39,890,129.82Z"/><path class="cls-2" d="M970.11,178.39H1023v15.76H953V64.93h17.07Z"/><path class="cls-2" d="M1080.57,178.39h61.14v15.76h-78V64.93h76.14V80.68h-59.26v42h51.76v15.94h-51.76Z"/><path class="cls-2" d="M1175.84,129.82c0-36.76,28.69-67.14,65.45-67.14a64.07,64.07,0,0,1,43.51,16.88L1273,90.62a48.17,48.17,0,0,0-31.69-12.19c-27.19,0-48.39,23.63-48.39,51.39s21.2,50.83,48.39,50.83c23.25,0,42.38-15.76,42.38-36.39h-37.5V129.44h56.26c0,45.2-24.38,67-61.14,67S1175.84,166.39,1175.84,129.82Z"/><path class="cls-2" d="M1413.26,194.15l-33.94-48.76h-16.69v48.76h-17.07V64.93h48.58c28.13,0,39,20.25,39,40.32,0,18.76-10.69,38.64-33.75,40.32l34.32,48.58ZM1362.63,80.68v49.14h27c18.95,0,26.45-9.94,26.45-24.57,0-14.44-8.44-24.57-21.57-24.57Z"/><path class="cls-2" d="M1471.21,129.82c0-36.76,28.51-67.14,65.27-67.14,37,0,65.64,30.38,65.64,67.14,0,36.57-28.69,66.58-65.64,66.58C1499.72,196.4,1471.21,166.39,1471.21,129.82Zm113.84,0c0-27.76-21-51.39-48.57-51.39-27.2,0-48.2,23.63-48.2,51.39,0,27.57,21,50.83,48.2,50.83C1564.05,180.65,1585.05,157.39,1585.05,129.82Z"/><path class="cls-2" d="M1709.21,64.93h17.44l-38.82,129.22h-16.32l-39-129.22h17.44l29.64,100.71Z"/><path class="cls-2" d="M1785.35,178.39h61.14v15.76h-78V64.93h76.14V80.68h-59.26v42h51.76v15.94h-51.76Z"/><path class="cls-1" d="M740.48,373.23h-6L724.3,292.17l-35.42,72h-6l-35.68-72.3L637,373.23h-5.84l11.54-91.41h5.84L686,358.37l37.15-76.55h5.83Z"/><path class="cls-1" d="M806.42,367.52h46.3v5.71H800.45V281.82h50.68v5.71H806.42v37.94h39.13v5.84H806.42Z"/><path class="cls-1" d="M945.18,281.82c25.61,0,40.33,19.9,40.33,45.9s-14.72,45.51-40.33,45.51H911V281.82Zm0,85.7c22.16,0,34.36-17.24,34.36-39.8s-12.2-40.19-34.36-40.19H916.93v80Z"/><path class="cls-1" d="M1044.55,373.23V281.82h6v91.41Z"/><path class="cls-1" d="M1173.1,373.23l-9.42-24.94H1119.1l-9.55,24.94h-6.37l35-91.41h6.36l34.76,91.41Zm-52-30.25h40.46l-20.16-53.2Z"/><path class="cls-2" d="M315.84,386.08a189.31,189.31,0,1,1,63.74-268.8l30.65-12.56A222.35,222.35,0,0,0,221.81,0C99.51,0,0,99.5,0,221.81s99.51,221.8,221.81,221.8A222.33,222.33,0,0,0,410.23,338.9l-30.65-12.56A190.6,190.6,0,0,1,315.84,386.08Z"/></g></g></svg>